<?xml version="1.0" encoding="UTF-8"?>
<svg xmlns="http://www.w3.org/2000/svg" style="stroke-dasharray:none; shape-rendering:auto; font-family:'Arial'; text-rendering:auto; fill-opacity:1; color-interpolation:auto; color-rendering:auto; font-size:12; fill:black; stroke:black; image-rendering:auto; stroke-miterlimit:10; stroke-linecap:square; stroke-linejoin:miter; font-style:normal; stroke-width:1; stroke-dashoffset:0; font-weight:normal; stroke-opacity:1;" contentScriptType="text/ecmascript" preserveAspectRatio="xMidYMid meet" zoomAndPan="magnify" version="1.0" contentStyleType="text/css" xml:xlink="http://www.w3.org/1999/xlink" width="1061" height="552"><rect x="10" y="10" width="1051" height="542" ry="0" rx="0" style="stroke:#000000; fill:#FFFFFF" /><rect x="40" y="370" width="1021" height="182" ry="0" rx="0" style="stroke:#000000; fill:#D0DAAE" /><g componentSequence="25"><text x="-461" y="47" transform="rotate(270)" text-anchor="middle" style="font-weight:bold;font-size:10px;stroke:none; fill:#434343"><tspan dy="14" x="-461">Superintendência. Novos negó...</tspan></text></g><rect x="40" y="190" width="1021" height="180" ry="0" rx="0" style="stroke:#000000; fill:#ADC9AC" /><g componentSequence="24"><text x="-280" y="47" transform="rotate(270)" text-anchor="middle" style="font-weight:bold;font-size:10px;stroke:none; fill:#434343"><tspan dy="14" x="-280">Novos Negócios</tspan></text></g><rect x="40" y="10" width="1021" height="180" ry="0" rx="0" style="stroke:#000000; fill:#82B0B7" /><g componentSequence="23"><text x="-100" y="47" transform="rotate(270)" text-anchor="middle" style="font-weight:bold;font-size:10px;stroke:none; fill:#434343"><tspan dy="14" x="-100">Solicitante</tspan></text></g><g componentSequence="1"><text x="-281" y="17" transform="rotate(270)" text-anchor="middle" style="font-weight:bold;font-size:10px;stroke:none; fill:#434343"><tspan dy="14" x="-281">Ponto Comercial</tspan></text></g><g sequence="4"><ellipse cx="167" cy="87" rx="17" ry="17" stroke-width="1" style="fill:url(#linearGradient66FF6696FF96B6FFB6_1656915416);" stroke="336633" /></g><g sequence="5"><rect x="200" y="229" width="106" height="84" ry="5" rx="5" style="fill:url(#linearGradientF8FBFEEDF5FCDEEDFAD4E7F8E2E5E9_1812293616);" stroke="191970" /></g><g componentSequence="5"><text x="253" y="244" text-anchor="middle" style="font-weight:bold;font-size:10px;stroke:none; fill:#333399"><tspan dy="14" x="253">Aprovação de</tspan><tspan dy="14" x="253">Novos Negócios</tspan></text></g><g sequence="7"><polygon points=" 423 250 453 220 483 250 453 280 423 250" style="fill:url(#linearGradientFAFBFCFFFFCC_1748692648);" stroke="000000" /></g><g componentSequence="7"><text x="453" y="290" text-anchor="middle" style="font-weight:bold;font-size:10px;stroke:none; fill:#333399"><tspan dy="14" x="453">Aprovad</tspan><tspan dy="14" x="453">o?</tspan></text></g><g sequence="9"><rect x="400" y="60" width="106" height="56" ry="5" rx="5" style="fill:url(#linearGradientF8FBFEEDF5FCDEEDFAD4E7F8E2E5E9_758672843);" stroke="191970" /></g><g componentSequence="9"><text x="453" y="77" text-anchor="middle" style="font-weight:bold;font-size:10px;stroke:none; fill:#333399"><tspan dy="14" x="453">Revisar</tspan></text></g><g sequence="11"><rect x="400" y="420" width="106" height="84" ry="5" rx="5" style="fill:url(#linearGradientF8FBFEEDF5FCDEEDFAD4E7F8E2E5E9_1529004529);" stroke="191970" /></g><g componentSequence="11"><text x="453" y="435" text-anchor="middle" style="font-weight:bold;font-size:10px;stroke:none; fill:#333399"><tspan dy="14" x="453">Aprovação da</tspan><tspan dy="14" x="453">Superintendênci</tspan><tspan dy="14" x="453">a</tspan></text></g><g sequence="14"><polygon points=" 660 441 690 411 720 441 690 471 660 441" style="fill:url(#linearGradientFAFBFCFFFFCC_475989890);" stroke="000000" /></g><g componentSequence="14"><text x="690" y="481" text-anchor="middle" style="font-weight:bold;font-size:10px;stroke:none; fill:#333399"><tspan dy="14" x="690">Aprovad</tspan><tspan dy="14" x="690">o?</tspan></text></g><g sequence="35"><ellipse cx="1027" cy="462" rx="17" ry="17" stroke-width="3" style="fill:url(#linearGradientFF6666FF9696FFB6B6_598734095);" stroke="993333" /></g><g componentSequence="6"><text x="177" y="204" style="font-size:10px;font-weight:none;stroke:none; fill:#333399" text-anchor="left" /></g><g componentSequence="26"><text x="374" y="271" style="font-size:10px;font-weight:none;stroke:none; fill:#333399" text-anchor="left"><tspan dy="14" x="374">Sim</tspan></text></g><g componentSequence="29"><text x="593" y="462" style="font-size:10px;font-weight:none;stroke:none; fill:#333399" text-anchor="left" /></g><g componentSequence="31"><text x="256" y="70" style="font-size:10px;font-weight:none;stroke:none; fill:#333399" text-anchor="left"><tspan dy="14" x="256">Retorno</tspan></text></g><g componentSequence="38"><text x="463" y="371" style="font-size:10px;font-weight:none;stroke:none; fill:#333399" text-anchor="left" /></g><g componentSequence="39"><text x="463" y="168" style="font-size:10px;font-weight:none;stroke:none; fill:#333399" text-anchor="left"><tspan dy="14" x="463">Correção</tspan></text></g><g componentSequence="41"><text x="699" y="158" style="font-size:10px;font-weight:none;stroke:none; fill:#333399" text-anchor="left"><tspan dy="14" x="699">Correção</tspan></text></g><g componentSequence="44"><text x="550" y="510" style="font-size:10px;font-weight:none;stroke:none; fill:#333399" text-anchor="left"><tspan dy="14" x="550">Não</tspan></text></g><g componentSequence="45"><text x="840" y="448" style="font-size:10px;font-weight:none;stroke:none; fill:#333399" text-anchor="left"><tspan dy="14" x="840">Sim</tspan></text></g><path style="fill:none; stroke:#000000;stroke-width:1" d="M167.0 105.0 L167.0 270.0 L199.0 270.0" /><polygon style="fill:#000000; stroke:#000000;" points=" 189 265 199 270 189 275 191 270" /><path style="fill:none; stroke:#000000;stroke-width:1" d="M306.0 271.0 L422.0 271.0" /><polygon style="fill:#000000; stroke:#000000;" points=" 412 266 422 271 412 276 414 271" /><path style="fill:none; stroke:#000000;stroke-width:1" d="M399.0 87.0 L253.0 87.0 L253.0 228.0" /><polygon style="fill:#000000; stroke:#000000;" points=" 258 218 253 228 248 218 253 220" /><path style="fill:none; stroke:#000000;stroke-width:1" d="M453.0 322.0 L453.0 419.0" /><polygon style="fill:#000000; stroke:#000000;" points=" 458 409 453 419 448 409 453 411" /><path style="fill:none; stroke:#000000;stroke-width:1" d="M453.0 219.0 L453.0 116.0" /><polygon style="fill:#000000; stroke:#000000;" points=" 448 126 453 116 458 126 453 124" /><path style="fill:none; stroke:#000000;stroke-width:1" d="M422.0 271.0 L342.0 271.0 L342.0 534.0 L1026.0 534.0 L1027.0 479.0" /><polygon style="fill:#000000; stroke:#000000;" points=" 1022 489 1027 479 1032 489 1027 487" /><path style="fill:none; stroke:#000000;stroke-width:1" d="M689.0 410.0 L689.0 88.0 L506.0 88.0" /><polygon style="fill:#000000; stroke:#000000;" points=" 516 93 506 88 516 83 514 88" /><path style="fill:none; stroke:#000000;stroke-width:1" d="M506.0 462.0 L659.0 462.0" /><polygon style="fill:#000000; stroke:#000000;" points=" 649 457 659 462 649 467 651 462" /><path style="fill:none; stroke:#000000;stroke-width:1" d="M720.0 462.0 L1009.0 462.0" /><polygon style="fill:#000000; stroke:#000000;" points=" 999 457 1009 462 999 467 1001 462" /><defs><linearGradient xmlns:xlink="http://www.w3.org/1999/xlink" xlink:href="#linearGradient66FF6696FF96B6FFB6" id="linearGradient66FF6696FF96B6FFB6_1656915416" x1="0" y1="70.0" x2="0" y2="105.0" gradientUnits="userSpaceOnUse" xlink:type="simple" xlink:actuate="onLoad" xlink:show="other" /><linearGradient id="linearGradient66FF6696FF96B6FFB6"><stop style="stop-color:#66FF66;stop-opacity:1;" offset="0.0" id="stop66FF66" /><stop style="stop-color:#96FF96;stop-opacity:1;" offset="0.5" id="stop96FF96" /><stop style="stop-color:#B6FFB6;stop-opacity:1;" offset="1.0" id="stopB6FFB6" /></linearGradient><linearGradient xmlns:xlink="http://www.w3.org/1999/xlink" xlink:href="#linearGradientF8FBFEEDF5FCDEEDFAD4E7F8E2E5E9" id="linearGradientF8FBFEEDF5FCDEEDFAD4E7F8E2E5E9_1812293616" x1="0" y1="229.0" x2="0" y2="335.0" gradientUnits="userSpaceOnUse" xlink:type="simple" xlink:actuate="onLoad" xlink:show="other" /><linearGradient id="linearGradientF8FBFEEDF5FCDEEDFAD4E7F8E2E5E9"><stop style="stop-color:#F8FBFE;stop-opacity:1;" offset="0.0" id="stopF8FBFE" /><stop style="stop-color:#EDF5FC;stop-opacity:1;" offset="0.25" id="stopEDF5FC" /><stop style="stop-color:#DEEDFA;stop-opacity:1;" offset="0.5" id="stopDEEDFA" /><stop style="stop-color:#D4E7F8;stop-opacity:1;" offset="0.75" id="stopD4E7F8" /><stop style="stop-color:#E2E5E9;stop-opacity:1;" offset="1.0" id="stopE2E5E9" /></linearGradient><linearGradient xmlns:xlink="http://www.w3.org/1999/xlink" xlink:href="#linearGradientFAFBFCFFFFCC" id="linearGradientFAFBFCFFFFCC_1748692648" x1="0" y1="220.0" x2="0" y2="280.0" gradientUnits="userSpaceOnUse" xlink:type="simple" xlink:actuate="onLoad" xlink:show="other" /><linearGradient id="linearGradientFAFBFCFFFFCC"><stop style="stop-color:#FAFBFC;stop-opacity:1;" offset="0.0" id="stopFAFBFC" /><stop style="stop-color:#FFFFCC;stop-opacity:1;" offset="1.0" id="stopFFFFCC" /></linearGradient><linearGradient xmlns:xlink="http://www.w3.org/1999/xlink" xlink:href="#linearGradientF8FBFEEDF5FCDEEDFAD4E7F8E2E5E9" id="linearGradientF8FBFEEDF5FCDEEDFAD4E7F8E2E5E9_758672843" x1="0" y1="60.0" x2="0" y2="166.0" gradientUnits="userSpaceOnUse" xlink:type="simple" xlink:actuate="onLoad" xlink:show="other" /><linearGradient xmlns:xlink="http://www.w3.org/1999/xlink" xlink:href="#linearGradientF8FBFEEDF5FCDEEDFAD4E7F8E2E5E9" id="linearGradientF8FBFEEDF5FCDEEDFAD4E7F8E2E5E9_1529004529" x1="0" y1="420.0" x2="0" y2="526.0" gradientUnits="userSpaceOnUse" xlink:type="simple" xlink:actuate="onLoad" xlink:show="other" /><linearGradient xmlns:xlink="http://www.w3.org/1999/xlink" xlink:href="#linearGradientFAFBFCFFFFCC" id="linearGradientFAFBFCFFFFCC_475989890" x1="0" y1="411.0" x2="0" y2="471.0" gradientUnits="userSpaceOnUse" xlink:type="simple" xlink:actuate="onLoad" xlink:show="other" /><linearGradient xmlns:xlink="http://www.w3.org/1999/xlink" xlink:href="#linearGradientFF6666FF9696FFB6B6" id="linearGradientFF6666FF9696FFB6B6_598734095" x1="0" y1="445.0" x2="0" y2="480.0" gradientUnits="userSpaceOnUse" xlink:type="simple" xlink:actuate="onLoad" xlink:show="other" /><linearGradient id="linearGradientFF6666FF9696FFB6B6"><stop style="stop-color:#FF6666;stop-opacity:1;" offset="0.0" id="stopFF6666" /><stop style="stop-color:#FF9696;stop-opacity:1;" offset="0.5" id="stopFF9696" /><stop style="stop-color:#FFB6B6;stop-opacity:1;" offset="1.0" id="stopFFB6B6" /></linearGradient></defs></svg>
